<?xml version="1.0" encoding="utf-8"?>
<!-- Generator: Adobe Illustrator 27.0.0, SVG Export Plug-In . SVG Version: 6.00 Build 0)  -->
<svg version="1.1" id="Calque_1" xmlns="http://www.w3.org/2000/svg" xmlns:xlink="http://www.w3.org/1999/xlink" x="0px" y="0px"
	 viewBox="0 0 23 23" style="enable-background:new 0 0 23 23;" xml:space="preserve">
<style type="text/css">
	.st0{fill:#FFFFFF;}
</style>
<g>
	<path class="st0" d="M6.5,23L6.5,23c-1.1,0-2-0.9-2-2V2c0-1.1,0.9-2,2-2h0c1.1,0,2,0.9,2,2v19C8.5,22.1,7.6,23,6.5,23z"/>
	<path class="st0" d="M16.5,23L16.5,23c-1.1,0-2-0.9-2-2V2c0-1.1,0.9-2,2-2h0c1.1,0,2,0.9,2,2v19C18.5,22.1,17.6,23,16.5,23z"/>
</g>
</svg>
