<?xml version="1.0" encoding="UTF-8"?><svg id="uuid-d7d4168a-cdaa-4a5e-9910-8e95f19b75dd" xmlns="http://www.w3.org/2000/svg" viewBox="0 0 53 38"><defs><style>.uuid-cfb10da6-9468-45d8-bcb6-ea0a9afbd352{fill:#b2b4b6;}</style></defs><path class="uuid-cfb10da6-9468-45d8-bcb6-ea0a9afbd352" d="M4,23H39.34l-8.17,8.17c-1.56,1.56-1.56,4.09,0,5.66,1.56,1.56,4.09,1.56,5.66,0l15-15s.03-.04,.04-.05c.17-.17,.32-.36,.45-.55,.07-.11,.12-.22,.18-.33,.06-.12,.14-.23,.19-.36,.06-.14,.09-.28,.13-.42,.03-.11,.07-.21,.1-.32,.05-.26,.08-.52,.08-.78s-.03-.53-.08-.78c-.02-.11-.07-.22-.1-.33-.04-.14-.07-.28-.13-.42-.05-.13-.13-.25-.19-.37-.05-.1-.1-.21-.16-.3,0,0-.01-.01-.02-.02-.13-.2-.29-.38-.45-.55-.02-.02-.03-.04-.05-.06L36.83,1.17c-.78-.78-1.8-1.17-2.83-1.17s-2.05,.39-2.83,1.17c-1.56,1.56-1.56,4.09,0,5.66l8.17,8.17H4c-2.21,0-4,1.79-4,4s1.79,4,4,4Z"/></svg>