<?xml version="1.0" encoding="UTF-8"?><svg id="uuid-d8f53199-3ae0-477a-91f3-41465eae15c2" xmlns="http://www.w3.org/2000/svg" viewBox="0 0 53 38"><defs><style>.uuid-c82e86b9-34cd-457e-b00b-257dd74ab319{fill:#b2b4b6;}</style></defs><path class="uuid-c82e86b9-34cd-457e-b00b-257dd74ab319" d="M49,15H13.66L21.83,6.83c1.56-1.56,1.56-4.09,0-5.66-1.56-1.56-4.09-1.56-5.66,0L1.17,16.17s-.03,.04-.04,.05c-.17,.17-.32,.36-.45,.55-.07,.11-.12,.22-.18,.33-.06,.12-.14,.23-.19,.36-.06,.14-.09,.28-.13,.42-.03,.11-.07,.21-.1,.32-.05,.26-.08,.52-.08,.78s.03,.53,.08,.78c.02,.11,.07,.22,.1,.33,.04,.14,.07,.28,.13,.42,.05,.13,.13,.25,.19,.37,.05,.1,.1,.21,.16,.3,0,0,.01,.01,.02,.02,.13,.2,.29,.38,.45,.55,.02,.02,.03,.04,.05,.06l15,15c.78,.78,1.8,1.17,2.83,1.17s2.05-.39,2.83-1.17c1.56-1.56,1.56-4.09,0-5.66l-8.17-8.17H49c2.21,0,4-1.79,4-4s-1.79-4-4-4Z"/></svg>