<?xml version="1.0" encoding="UTF-8"?><svg id="uuid-cde9fbc0-e22e-4c1c-9b29-59425e9b0ca0" xmlns="http://www.w3.org/2000/svg" viewBox="0 0 23 23"><defs><style>.uuid-f57eb253-517b-43f8-a522-5bc054be4a04{fill:#fff;}</style></defs><path class="uuid-f57eb253-517b-43f8-a522-5bc054be4a04" d="M22.95,1.99c-.01-.07-.04-.13-.06-.2-.03-.09-.05-.18-.08-.26-.03-.08-.08-.15-.12-.22-.04-.07-.07-.14-.11-.2-.09-.13-.19-.26-.31-.38,0,0,0,0,0,0-.03-.02-.05-.04-.08-.07-.09-.09-.19-.17-.3-.24-.07-.04-.14-.07-.21-.11-.07-.04-.14-.08-.22-.12-.08-.03-.17-.05-.25-.08-.07-.02-.14-.05-.21-.06-.13-.03-.27-.04-.4-.04-.03,0-.05,0-.08,0H5.59c-1.37,0-2.49,1.11-2.49,2.48s1.11,2.48,2.49,2.48H14.52L.73,18.77c-.97,.97-.97,2.54,0,3.51,.49,.48,1.12,.72,1.76,.72s1.28-.24,1.76-.73l13.78-13.79v8.89c0,1.37,1.11,2.48,2.49,2.48s2.49-1.11,2.49-2.48V2.48s0,0,0,0c0-.16-.02-.33-.05-.49Z"/></svg>