<?xml version="1.0" encoding="utf-8"?>
<!-- Generator: Adobe Illustrator 27.0.0, SVG Export Plug-In . SVG Version: 6.00 Build 0)  -->
<svg version="1.1" id="Calque_1" xmlns="http://www.w3.org/2000/svg" xmlns:xlink="http://www.w3.org/1999/xlink" x="0px" y="0px"
	 viewBox="0 0 23 23" style="enable-background:new 0 0 23 23;" xml:space="preserve">
<style type="text/css">
	.st0{fill:#FFFFFF;}
</style>
<path class="st0" d="M18.1,8.8l-7.6-7.6c0,0,0,0,0,0C10.3,1,10.1,0.8,9.8,0.6c0,0,0,0,0,0C9.6,0.5,9.4,0.4,9.2,0.3c0,0,0,0,0,0
	C8.9,0.2,8.7,0.1,8.4,0.1c0,0,0,0,0,0C8.2,0,7.9,0,7.7,0S7.2,0,7,0.1c0,0,0,0,0,0c-0.2,0-0.5,0.1-0.7,0.2c0,0,0,0,0,0
	C6,0.4,5.8,0.5,5.6,0.6c0,0,0,0,0,0C5.3,0.8,5.1,1,4.9,1.1c0,0,0,0,0,0v0C4.2,1.8,3.8,2.8,3.8,3.9v15.2c0,1.1,0.4,2,1.1,2.7v0
	c1.5,1.5,4,1.5,5.5,0l7.6-7.6C19.6,12.7,19.6,10.3,18.1,8.8z"/>
</svg>
